<?xml version="1.0" encoding="utf-8"?>
<!-- Generator: Adobe Illustrator 26.2.1, SVG Export Plug-In . SVG Version: 6.00 Build 0)  -->
<svg version="1.1" id="Capa_1" xmlns="http://www.w3.org/2000/svg" xmlns:xlink="http://www.w3.org/1999/xlink" x="0px" y="0px"
	 viewBox="0 0 50 40.74" style="enable-background:new 0 0 50 40.74;" xml:space="preserve">
<style type="text/css">
	.st0{fill:none;stroke:#0AAFF1;stroke-width:15;stroke-miterlimit:10;}
	.st1{fill:#0AAFF1;}
	.st2{fill:#FFFFFF;}
	.st3{fill:#FFFFFF;stroke:#E0E5EE;stroke-miterlimit:10;}
	.st4{fill:#606060;}
	.st5{fill:none;stroke:#0084F6;stroke-width:11;stroke-miterlimit:10;}
	.st6{fill:#00B346;}
	.st7{fill:#00A3C8;}
	.st8{fill:none;stroke:#00A3C8;stroke-miterlimit:10;}
	.st9{fill:none;stroke:#FFFFFF;stroke-width:4;stroke-miterlimit:10;}
	.st10{fill:#606060;stroke:#606060;stroke-width:5;stroke-miterlimit:10;}
	.st11{fill:none;stroke:#FFFFFF;stroke-width:10;stroke-miterlimit:10;}
	.st12{fill:#606060;stroke:#FFFFFF;stroke-width:10;stroke-miterlimit:10;}
	.st13{fill:#E70027;}
	.st14{fill:#FFFFFC;}
	.st15{fill:#FFFFFF;stroke:#606060;stroke-width:10;stroke-miterlimit:10;}
	.st16{fill:none;stroke:#000000;stroke-width:10;stroke-miterlimit:10;}
	.st17{fill:#F2F5FA;}
	.st18{fill:#FF8A5C;}
	.st19{fill:#F8F8F8;stroke:#E0E5EE;stroke-miterlimit:10;}
	.st20{fill:none;stroke:#C6C6C6;stroke-miterlimit:10;}
	.st21{fill:#FF5470;}
	.st22{fill:none;stroke:#FFFFFF;stroke-width:7;stroke-miterlimit:10;}
	.st23{fill:#FF7523;}
	.st24{fill:none;stroke:#FFFFFF;stroke-miterlimit:10;}
	.st25{fill:none;stroke:#0AAFF1;stroke-linecap:round;stroke-linejoin:round;stroke-miterlimit:10;}
	.st26{fill:#0AAFF1;stroke:#FFFFFF;stroke-linecap:round;stroke-linejoin:round;stroke-miterlimit:10;}
	.st27{opacity:0.25;fill:#1E93D1;}
	.st28{fill:#1E93D1;}
	.st29{fill:#1C5392;}
	.st30{fill:none;stroke:#FFFFFF;stroke-linecap:round;stroke-linejoin:round;stroke-miterlimit:10;}
	.st31{fill:none;stroke:#0AAFF1;stroke-width:2;stroke-linecap:round;stroke-linejoin:round;stroke-miterlimit:10;}
	.st32{fill:none;stroke:#0AAFF1;stroke-width:4;stroke-linecap:round;stroke-linejoin:round;stroke-miterlimit:10;}
	.st33{fill:none;stroke:#FFFFFF;stroke-width:5;stroke-miterlimit:10;}
	.st34{fill:none;stroke:#FFFFFF;stroke-width:5;stroke-linecap:round;stroke-linejoin:round;stroke-miterlimit:10;}
	.st35{fill:none;stroke:#0AAFF1;stroke-width:24;stroke-miterlimit:10;}
	.st36{fill:none;stroke:#F2F5FA;stroke-width:10;stroke-miterlimit:10;}
	.st37{fill:#B8D637;}
	.st38{fill:#1D1D1B;}
	.st39{fill:#88898B;}
	.st40{fill:#9F9FA1;}
	.st41{fill:#D2D2D3;}
	.st42{fill:#F7F7F7;}
	.st43{fill:none;stroke:#FFFFFF;stroke-width:4;stroke-linecap:round;stroke-linejoin:round;stroke-miterlimit:10;}
	.st44{fill:#0AAFF1;stroke:#FFFFFF;stroke-width:1.5;stroke-linecap:round;stroke-linejoin:round;stroke-miterlimit:10;}
	.st45{fill:#FFFFFF;stroke:#0AAFF1;stroke-width:1.5;stroke-linecap:round;stroke-linejoin:round;stroke-miterlimit:10;}
	.st46{fill:#FFFFFF;stroke:#0AAFF1;stroke-width:3;stroke-linecap:round;stroke-linejoin:round;stroke-miterlimit:10;}
	.st47{fill:none;stroke:#0AAFF1;stroke-width:3;stroke-linecap:round;stroke-linejoin:round;stroke-miterlimit:10;}
	.st48{fill:none;}
	.st49{fill:#FFFFFF;stroke:#0AAFF1;stroke-width:1.5;stroke-miterlimit:10;}
	.st50{fill:#0AAFF1;stroke:#FFFFFF;stroke-width:1.5;stroke-miterlimit:10;}
	.st51{fill:none;stroke:#0AAFF1;stroke-width:2;stroke-miterlimit:10;}
	.st52{fill:#FFFFFF;stroke:#0AAFF1;stroke-width:2;stroke-miterlimit:10;}
	.st53{fill:#0AAFF1;stroke:#FFFFFF;stroke-miterlimit:10;}
	.st54{fill:none;stroke:#0AAFF1;stroke-miterlimit:10;}
	.st55{fill:#FFFFFF;stroke:#0AAFF1;stroke-miterlimit:10;}
	.st56{fill:none;stroke:#FFFFFF;stroke-width:2;stroke-miterlimit:10;}
	.st57{fill:#0AAFF1;stroke:#0AAFF1;stroke-width:3;stroke-miterlimit:10;}
	.st58{fill:none;stroke:#0AAFF1;stroke-width:4;stroke-miterlimit:10;}
	.st59{fill:none;stroke:#0AAFF1;stroke-width:2.25;stroke-miterlimit:10;}
	.st60{fill:#1FB900;}
	.st61{fill:none;stroke:#0AAFF1;stroke-width:13;stroke-linecap:round;stroke-linejoin:round;stroke-miterlimit:10;}
	.st62{fill:none;stroke:#FFFFFF;stroke-width:1.5;stroke-miterlimit:10;}
	.st63{fill:none;stroke:#FFFFFF;stroke-width:1.5;stroke-linecap:round;stroke-linejoin:round;stroke-miterlimit:10;}
	.st64{fill:#F7FAF9;}
	.st65{fill:none;stroke:#FFFFFF;stroke-width:0.5;stroke-miterlimit:10;}
	.st66{fill:#FFFFFF;stroke:#0AAFF1;stroke-width:3;stroke-miterlimit:10;}
	.st67{fill:#606060;stroke:#0AAFF1;stroke-width:15;stroke-miterlimit:10;}
	.st68{fill:none;stroke:#0AAFF1;stroke-width:8;stroke-miterlimit:10;}
	.st69{fill:#FFFFFF;stroke:#0AAFF1;stroke-width:0.75;stroke-linecap:round;stroke-linejoin:round;stroke-miterlimit:10;}
	.st70{fill:none;stroke:#0AAFF1;stroke-width:10;stroke-linecap:round;stroke-linejoin:round;stroke-miterlimit:10;}
	.st71{fill:none;stroke:#E70027;stroke-width:10;stroke-linecap:round;stroke-linejoin:round;stroke-miterlimit:10;}
	.st72{opacity:0.5;fill:none;stroke:#E70027;stroke-width:10;stroke-miterlimit:10;}
	.st73{opacity:0.5;fill:#E70027;}
	.st74{fill:none;stroke:#FFFFFC;stroke-width:10;stroke-linecap:round;stroke-linejoin:round;stroke-miterlimit:10;}
	.st75{fill:none;stroke:#606060;stroke-width:15;stroke-linecap:round;stroke-linejoin:round;stroke-miterlimit:10;}
	.st76{fill:#606060;stroke:#FFFFFF;stroke-width:7;stroke-miterlimit:10;}
	.st77{fill:#0AAFF1;stroke:#0AAFF1;stroke-miterlimit:10;}
	.st78{fill:none;stroke:#606060;stroke-width:10;stroke-linecap:round;stroke-linejoin:round;stroke-miterlimit:10;}
	.st79{fill:none;stroke:#FFFFFF;stroke-width:7;stroke-miterlimit:10;stroke-dasharray:5.8286,5.8286;}
	.st80{fill:none;stroke:#000000;stroke-width:19;stroke-miterlimit:10;}
	.st81{fill:#0AAFF1;stroke:#FFFFFF;stroke-width:2;stroke-miterlimit:10;}
	.st82{fill:#45B8FF;}
	.st83{opacity:0.5;fill:none;stroke:#45B8FF;stroke-width:1.75;stroke-miterlimit:10;}
	.st84{fill:none;stroke:#000000;stroke-width:1.75;stroke-miterlimit:10;}
	.st85{fill:none;stroke:#000000;stroke-width:1.5;stroke-miterlimit:10;}
	.st86{fill:none;stroke:#0AAFF1;stroke-width:1.75;stroke-miterlimit:10;}
	.st87{fill:none;stroke:#0AAFF1;stroke-width:1.75;stroke-linecap:round;stroke-linejoin:round;stroke-miterlimit:10;}
	.st88{fill:#FFFFFC;stroke:#FFFFFC;stroke-width:3;stroke-miterlimit:10;}
	.st89{fill:none;stroke:#000000;stroke-width:2;stroke-miterlimit:10;}
	.st90{fill:none;stroke:#FFFFFF;stroke-width:2;stroke-linecap:round;stroke-linejoin:round;stroke-miterlimit:10;}
	.st91{fill:#00A3C8;stroke:#606060;stroke-width:5;stroke-miterlimit:10;}
	.st92{fill:#0084F6;}
	.st93{fill:#CDCDC9;}
	.st94{fill-rule:evenodd;clip-rule:evenodd;fill:#FFFFFF;}
	.st95{fill:none;stroke:#0AAFF1;stroke-width:5;stroke-miterlimit:10;}
	.st96{fill:none;stroke:#0AAFF1;stroke-width:5;stroke-linecap:round;stroke-linejoin:round;stroke-miterlimit:10;}
	.st97{fill:#FFFFFF;stroke:#0AAFF1;stroke-width:5;stroke-linecap:round;stroke-linejoin:round;stroke-miterlimit:10;}
	.st98{fill:none;stroke:#0AAFF1;stroke-width:3;stroke-miterlimit:10;}
	.st99{fill:#0AAFF1;stroke:#0AAFF1;stroke-width:6;stroke-linecap:round;stroke-linejoin:round;stroke-miterlimit:10;}
	.st100{fill:#00D06F;}
	.st101{fill:#0AAFF1;stroke:#0AAFF1;stroke-width:6;stroke-miterlimit:10;}
	.st102{fill:none;stroke:#0AAFF1;stroke-width:2.5;stroke-linecap:round;stroke-linejoin:round;stroke-miterlimit:10;}
	.st103{fill:#FFFF00;stroke:#000000;stroke-width:3;stroke-miterlimit:10;}
	.st104{fill:#53FC00;}
	.st105{fill:#80A51B;}
	.st106{fill:none;stroke:#80A51B;stroke-width:0.999;}
	.st107{fill:none;stroke:#000000;stroke-width:0.75;stroke-miterlimit:10;}
	.st108{opacity:0.4;}
	.st109{fill:#0078D4;}
	.st110{fill:#45D7FA;}
	.st111{fill:#189AE1;}
	.st112{fill:none;stroke:#606060;stroke-width:13;stroke-linecap:round;stroke-linejoin:round;stroke-miterlimit:10;}
	.st113{fill:none;stroke:#FFFFFF;stroke-width:7;stroke-linecap:round;stroke-linejoin:round;stroke-miterlimit:10;}
	.st114{fill:#FFFFFF;stroke:#FFFFFF;stroke-miterlimit:10;}
	.st115{fill:#DADADA;}
	.st116{fill:none;stroke:#20FF77;stroke-miterlimit:10;}
</style>
<g>
	<path class="st2" d="M27.68,13.21l-0.59,6.03l-0.02,0.25c0.19,0.08,0.38,0.16,0.56,0.26c0.8,0.46,1.48,1.12,1.95,1.92
		s0.74,1.72,0.74,2.72c0,2.95-2.4,5.35-5.35,5.35l0,0l0,0c-1.32,0-2.52-0.48-3.46-1.28l-0.2,0.13l-5.13,3.22
		c0.63,0.74,1.34,1.41,2.13,1.97c1.51,1.07,3.28,1.79,5.2,2.03c0.48,0.06,0.97,0.09,1.46,0.09c1.59,0,3.1-0.32,4.48-0.91
		c1.38-0.58,2.62-1.43,3.66-2.47c2.09-2.09,3.38-4.97,3.38-8.14C36.49,18.98,32.73,14.44,27.68,13.21z"/>
	<path class="st2" d="M15.11,16.3l6.2,3.89l0.2,0.13c0.08-0.07,0.17-0.13,0.26-0.2c0.24-0.18,0.48-0.34,0.74-0.48
		c0.37-0.19,0.76-0.34,1.17-0.44c0.41-0.1,0.84-0.16,1.28-0.16l0,0l0,0c0.02,0,0.04,0,0.07,0s0.04,0,0.07,0l0.82-8.45
		c-0.16-0.01-0.32-0.01-0.48-0.02c-0.16-0.01-0.32-0.02-0.48-0.02c-4.19,0-7.95,1.88-10.49,4.83c-0.1,0.11-0.18,0.23-0.28,0.34
		L15.11,16.3z"/>
	<path class="st2" d="M14.04,30.8l6.2-3.89c-0.1-0.19-0.19-0.38-0.27-0.58c-0.23-0.6-0.36-1.25-0.36-1.93
		c0-0.45,0.06-0.89,0.16-1.31c0.08-0.31,0.19-0.6,0.32-0.88c0.05-0.1,0.09-0.21,0.14-0.31l-6.2-3.89c-1.11,1.88-1.75,4.07-1.75,6.4
		C12.29,26.74,12.93,28.92,14.04,30.8z"/>
	<path class="st2" d="M6.29,40.74h37.42c3.47,0,6.29-2.82,6.29-6.29V6.29C50,2.82,47.18,0,43.71,0H6.29C4.01,0,2.02,1.22,0.92,3.04
		C0.34,3.99,0,5.1,0,6.29v28.16c0,1.19,0.34,2.3,0.92,3.25C2.02,39.52,4.01,40.74,6.29,40.74z M14.51,3.18
		c0.63,0,1.14,0.51,1.14,1.14c0,0.63-0.51,1.14-1.14,1.14c-0.63,0-1.14-0.51-1.14-1.14C13.36,3.69,13.88,3.18,14.51,3.18z
		 M10.75,3.18c0.63,0,1.14,0.51,1.14,1.14c0,0.63-0.51,1.14-1.14,1.14S9.6,4.96,9.6,4.32C9.6,3.69,10.11,3.18,10.75,3.18z
		 M6.98,3.18c0.63,0,1.14,0.51,1.14,1.14c0,0.63-0.51,1.14-1.14,1.14c-0.63,0-1.14-0.51-1.14-1.14C5.84,3.69,6.35,3.18,6.98,3.18z
		 M2.12,7.86h45.75v26.59c0,2.3-1.87,4.17-4.17,4.17H6.29c-2.3,0-4.17-1.87-4.17-4.17V7.86z"/>
</g>
</svg>
