<?xml version="1.0" encoding="utf-8"?>
<!-- Generator: Adobe Illustrator 26.2.1, SVG Export Plug-In . SVG Version: 6.00 Build 0)  -->
<svg version="1.1" id="Capa_1" xmlns="http://www.w3.org/2000/svg" xmlns:xlink="http://www.w3.org/1999/xlink" x="0px" y="0px"
	 viewBox="0 0 50 48.33" style="enable-background:new 0 0 50 48.33;" xml:space="preserve">
<style type="text/css">
	.st0{fill:none;stroke:#0AAFF1;stroke-width:15;stroke-miterlimit:10;}
	.st1{fill:#0AAFF1;}
	.st2{fill:#FFFFFF;}
	.st3{fill:#FFFFFF;stroke:#E0E5EE;stroke-miterlimit:10;}
	.st4{fill:#606060;}
	.st5{fill:none;stroke:#0084F6;stroke-width:11;stroke-miterlimit:10;}
	.st6{fill:#00B346;}
	.st7{fill:#00A3C8;}
	.st8{fill:none;stroke:#00A3C8;stroke-miterlimit:10;}
	.st9{fill:none;stroke:#FFFFFF;stroke-width:4;stroke-miterlimit:10;}
	.st10{fill:#606060;stroke:#606060;stroke-width:5;stroke-miterlimit:10;}
	.st11{fill:none;stroke:#FFFFFF;stroke-width:10;stroke-miterlimit:10;}
	.st12{fill:#606060;stroke:#FFFFFF;stroke-width:10;stroke-miterlimit:10;}
	.st13{fill:#E70027;}
	.st14{fill:#FFFFFC;}
	.st15{fill:#FFFFFF;stroke:#606060;stroke-width:10;stroke-miterlimit:10;}
	.st16{fill:none;stroke:#000000;stroke-width:10;stroke-miterlimit:10;}
	.st17{fill:#F2F5FA;}
	.st18{fill:#FF8A5C;}
	.st19{fill:#F8F8F8;stroke:#E0E5EE;stroke-miterlimit:10;}
	.st20{fill:none;stroke:#C6C6C6;stroke-miterlimit:10;}
	.st21{fill:#FF5470;}
	.st22{fill:none;stroke:#FFFFFF;stroke-width:7;stroke-miterlimit:10;}
	.st23{fill:#FF7523;}
	.st24{fill:none;stroke:#FFFFFF;stroke-miterlimit:10;}
	.st25{fill:none;stroke:#0AAFF1;stroke-linecap:round;stroke-linejoin:round;stroke-miterlimit:10;}
	.st26{fill:#0AAFF1;stroke:#FFFFFF;stroke-linecap:round;stroke-linejoin:round;stroke-miterlimit:10;}
	.st27{opacity:0.25;fill:#1E93D1;}
	.st28{fill:#1E93D1;}
	.st29{fill:#1C5392;}
	.st30{fill:none;stroke:#FFFFFF;stroke-linecap:round;stroke-linejoin:round;stroke-miterlimit:10;}
	.st31{fill:none;stroke:#0AAFF1;stroke-width:2;stroke-linecap:round;stroke-linejoin:round;stroke-miterlimit:10;}
	.st32{fill:none;stroke:#0AAFF1;stroke-width:4;stroke-linecap:round;stroke-linejoin:round;stroke-miterlimit:10;}
	.st33{fill:none;stroke:#FFFFFF;stroke-width:5;stroke-miterlimit:10;}
	.st34{fill:none;stroke:#FFFFFF;stroke-width:5;stroke-linecap:round;stroke-linejoin:round;stroke-miterlimit:10;}
	.st35{fill:none;stroke:#0AAFF1;stroke-width:24;stroke-miterlimit:10;}
	.st36{fill:none;stroke:#F2F5FA;stroke-width:10;stroke-miterlimit:10;}
	.st37{fill:#B8D637;}
	.st38{fill:#1D1D1B;}
	.st39{fill:#88898B;}
	.st40{fill:#9F9FA1;}
	.st41{fill:#D2D2D3;}
	.st42{fill:#F7F7F7;}
	.st43{fill:none;stroke:#FFFFFF;stroke-width:4;stroke-linecap:round;stroke-linejoin:round;stroke-miterlimit:10;}
	.st44{fill:#0AAFF1;stroke:#FFFFFF;stroke-width:1.5;stroke-linecap:round;stroke-linejoin:round;stroke-miterlimit:10;}
	.st45{fill:#FFFFFF;stroke:#0AAFF1;stroke-width:1.5;stroke-linecap:round;stroke-linejoin:round;stroke-miterlimit:10;}
	.st46{fill:#FFFFFF;stroke:#0AAFF1;stroke-width:3;stroke-linecap:round;stroke-linejoin:round;stroke-miterlimit:10;}
	.st47{fill:none;stroke:#0AAFF1;stroke-width:3;stroke-linecap:round;stroke-linejoin:round;stroke-miterlimit:10;}
	.st48{fill:none;}
	.st49{fill:#FFFFFF;stroke:#0AAFF1;stroke-width:1.5;stroke-miterlimit:10;}
	.st50{fill:#0AAFF1;stroke:#FFFFFF;stroke-width:1.5;stroke-miterlimit:10;}
	.st51{fill:none;stroke:#0AAFF1;stroke-width:2;stroke-miterlimit:10;}
	.st52{fill:#FFFFFF;stroke:#0AAFF1;stroke-width:2;stroke-miterlimit:10;}
	.st53{fill:#0AAFF1;stroke:#FFFFFF;stroke-miterlimit:10;}
	.st54{fill:none;stroke:#0AAFF1;stroke-miterlimit:10;}
	.st55{fill:#FFFFFF;stroke:#0AAFF1;stroke-miterlimit:10;}
	.st56{fill:none;stroke:#FFFFFF;stroke-width:2;stroke-miterlimit:10;}
	.st57{fill:#0AAFF1;stroke:#0AAFF1;stroke-width:3;stroke-miterlimit:10;}
	.st58{fill:none;stroke:#0AAFF1;stroke-width:4;stroke-miterlimit:10;}
	.st59{fill:none;stroke:#0AAFF1;stroke-width:2.25;stroke-miterlimit:10;}
	.st60{fill:#1FB900;}
	.st61{fill:none;stroke:#0AAFF1;stroke-width:13;stroke-linecap:round;stroke-linejoin:round;stroke-miterlimit:10;}
	.st62{fill:none;stroke:#FFFFFF;stroke-width:1.5;stroke-miterlimit:10;}
	.st63{fill:none;stroke:#FFFFFF;stroke-width:1.5;stroke-linecap:round;stroke-linejoin:round;stroke-miterlimit:10;}
	.st64{fill:#F7FAF9;}
	.st65{fill:none;stroke:#FFFFFF;stroke-width:0.5;stroke-miterlimit:10;}
	.st66{fill:#FFFFFF;stroke:#0AAFF1;stroke-width:3;stroke-miterlimit:10;}
	.st67{fill:#606060;stroke:#0AAFF1;stroke-width:15;stroke-miterlimit:10;}
	.st68{fill:none;stroke:#0AAFF1;stroke-width:8;stroke-miterlimit:10;}
	.st69{fill:#FFFFFF;stroke:#0AAFF1;stroke-width:0.75;stroke-linecap:round;stroke-linejoin:round;stroke-miterlimit:10;}
	.st70{fill:none;stroke:#0AAFF1;stroke-width:10;stroke-linecap:round;stroke-linejoin:round;stroke-miterlimit:10;}
	.st71{fill:none;stroke:#E70027;stroke-width:10;stroke-linecap:round;stroke-linejoin:round;stroke-miterlimit:10;}
	.st72{opacity:0.5;fill:none;stroke:#E70027;stroke-width:10;stroke-miterlimit:10;}
	.st73{opacity:0.5;fill:#E70027;}
	.st74{fill:none;stroke:#FFFFFC;stroke-width:10;stroke-linecap:round;stroke-linejoin:round;stroke-miterlimit:10;}
	.st75{fill:none;stroke:#606060;stroke-width:15;stroke-linecap:round;stroke-linejoin:round;stroke-miterlimit:10;}
	.st76{fill:#606060;stroke:#FFFFFF;stroke-width:7;stroke-miterlimit:10;}
	.st77{fill:#0AAFF1;stroke:#0AAFF1;stroke-miterlimit:10;}
	.st78{fill:none;stroke:#606060;stroke-width:10;stroke-linecap:round;stroke-linejoin:round;stroke-miterlimit:10;}
	.st79{fill:none;stroke:#FFFFFF;stroke-width:7;stroke-miterlimit:10;stroke-dasharray:5.8286,5.8286;}
	.st80{fill:none;stroke:#000000;stroke-width:19;stroke-miterlimit:10;}
	.st81{fill:#0AAFF1;stroke:#FFFFFF;stroke-width:2;stroke-miterlimit:10;}
	.st82{fill:#45B8FF;}
	.st83{opacity:0.5;fill:none;stroke:#45B8FF;stroke-width:1.75;stroke-miterlimit:10;}
	.st84{fill:none;stroke:#000000;stroke-width:1.75;stroke-miterlimit:10;}
	.st85{fill:none;stroke:#000000;stroke-width:1.5;stroke-miterlimit:10;}
	.st86{fill:none;stroke:#0AAFF1;stroke-width:1.75;stroke-miterlimit:10;}
	.st87{fill:none;stroke:#0AAFF1;stroke-width:1.75;stroke-linecap:round;stroke-linejoin:round;stroke-miterlimit:10;}
	.st88{fill:#FFFFFC;stroke:#FFFFFC;stroke-width:3;stroke-miterlimit:10;}
	.st89{fill:none;stroke:#000000;stroke-width:2;stroke-miterlimit:10;}
	.st90{fill:none;stroke:#FFFFFF;stroke-width:2;stroke-linecap:round;stroke-linejoin:round;stroke-miterlimit:10;}
	.st91{fill:#00A3C8;stroke:#606060;stroke-width:5;stroke-miterlimit:10;}
	.st92{fill:#0084F6;}
	.st93{fill:#CDCDC9;}
	.st94{fill-rule:evenodd;clip-rule:evenodd;fill:#FFFFFF;}
	.st95{fill:none;stroke:#0AAFF1;stroke-width:5;stroke-miterlimit:10;}
	.st96{fill:none;stroke:#0AAFF1;stroke-width:5;stroke-linecap:round;stroke-linejoin:round;stroke-miterlimit:10;}
	.st97{fill:#FFFFFF;stroke:#0AAFF1;stroke-width:5;stroke-linecap:round;stroke-linejoin:round;stroke-miterlimit:10;}
	.st98{fill:none;stroke:#0AAFF1;stroke-width:3;stroke-miterlimit:10;}
	.st99{fill:#0AAFF1;stroke:#0AAFF1;stroke-width:6;stroke-linecap:round;stroke-linejoin:round;stroke-miterlimit:10;}
	.st100{fill:#00D06F;}
	.st101{fill:#0AAFF1;stroke:#0AAFF1;stroke-width:6;stroke-miterlimit:10;}
	.st102{fill:none;stroke:#0AAFF1;stroke-width:2.5;stroke-linecap:round;stroke-linejoin:round;stroke-miterlimit:10;}
	.st103{fill:#FFFF00;stroke:#000000;stroke-width:3;stroke-miterlimit:10;}
	.st104{fill:#53FC00;}
	.st105{fill:#80A51B;}
	.st106{fill:none;stroke:#80A51B;stroke-width:0.999;}
	.st107{fill:none;stroke:#000000;stroke-width:0.75;stroke-miterlimit:10;}
	.st108{opacity:0.4;}
	.st109{fill:#0078D4;}
	.st110{fill:#45D7FA;}
	.st111{fill:#189AE1;}
	.st112{fill:none;stroke:#606060;stroke-width:13;stroke-linecap:round;stroke-linejoin:round;stroke-miterlimit:10;}
	.st113{fill:none;stroke:#FFFFFF;stroke-width:7;stroke-linecap:round;stroke-linejoin:round;stroke-miterlimit:10;}
	.st114{fill:#FFFFFF;stroke:#FFFFFF;stroke-miterlimit:10;}
	.st115{fill:#DADADA;}
	.st116{fill:none;stroke:#20FF77;stroke-miterlimit:10;}
</style>
<g>
	<path class="st2" d="M14.4,10.71v2.11c1.45,1.31,2.33,3.2,2.33,5.2c0,0.18-0.03,0.37-0.05,0.55c0.09,0.03,0.18,0.06,0.28,0.09
		l0.01-0.02l0.13,0.07c2.84,0.94,5.8,1.36,8.81,1.59c5.19,0.4,10.34,0.15,15.41-1.09c2.48-0.6,4.89-1.41,6.93-3.03
		c1.15-0.91,1.81-2.03,1.74-3.58c-0.08-1.67-0.04-3.34-0.01-5.01c0.02-1.07-0.31-2.02-1.13-2.63c-1.18-0.89-2.41-1.8-3.76-2.38
		C40.3,0.55,35.21,0.13,28.42,0c-1.71,0.21-5.05,0.53-8.36,1.08c-2.82,0.47-5.54,1.37-7.89,3.1c-0.74,0.54-1.3,1.17-1.64,1.93
		C12.73,6.49,14.4,8.4,14.4,10.71z"/>
	<path class="st2" d="M20.36,28.76c0.33,0.85,0.62,1.58,0.83,2.14l1.11,2.86c1.32,0.2,2.64,0.33,3.98,0.42
		c4.87,0.33,9.73,0.13,14.5-1.01c2.62-0.62,5.18-1.41,7.36-3.09c1.21-0.93,1.93-2.08,1.84-3.7c-0.08-1.55-0.02-3.11-0.02-4.67
		c0-1.31,0-2.62,0-3.94c-0.79,1.26-1.85,2.13-3.07,2.8c-0.74,0.4-1.51,0.77-2.3,1.07c-4.06,1.55-8.3,2.1-12.61,2.25
		c-2.7,0.1-5.39,0.02-8.05-0.3l-1.01,1.8C22.22,26.66,21.35,27.78,20.36,28.76z"/>
	<path class="st2" d="M49.96,32.42c0-0.23-0.03-0.45-0.06-0.86c-0.75,1.54-1.88,2.42-3.17,3.1c-3.9,2.06-8.16,2.75-12.48,3.11
		c-3.74,0.31-7.47,0.2-11.18-0.32c-0.09,0.9-0.41,1.73-0.97,2.47c0.09,0.23,0.18,0.47,0.26,0.7c0.21,0.49,0.72,1.67,0.16,3.04
		c-0.35,0.86-1.05,1.54-1.95,1.91c-0.95,0.39-1.96,0.38-2.84-0.03c-1.38-0.64-1.8-1.9-1.95-2.38c-1.08-2.74-2.15-5.45-3.19-8.16
		l-0.1-0.23l-0.36-0.93c-0.31-0.23-0.61-0.49-0.89-0.77c-0.34,0.03-0.67,0.06-1.01,0.07c0.01,2.39,0.04,4.78-0.03,7.17
		c-0.05,1.69,0.66,2.88,1.93,3.83c0.56,0.42,1.17,0.8,1.79,1.12c3.7,1.86,7.7,2.53,11.77,2.88c5.13,0.43,10.23,0.18,15.26-1
		c2.48-0.58,4.9-1.36,7-2.88c1.36-0.99,2.14-2.22,2.07-4.01C49.89,37.63,49.96,35.02,49.96,32.42z"/>
	<path class="st2" d="M6.44,29.32c1.19,0.41,2.46,0.63,3.79,0.63c1.33,0,2.6-0.23,3.79-0.63c0.14,0.36,0.26,0.67,0.35,0.91
		l1.22,3.13c0.02,0.04,0.04,0.07,0.06,0.11c1.02,2.66,2.06,5.31,3.11,7.96c0.15,0.38,0.22,1,0.85,0.74
		c0.58-0.23,0.25-0.71,0.11-1.09c-0.31-0.84-0.64-1.67-0.96-2.49c1.55-0.96,1.83-1.81,1.17-3.5c-0.44-1.12-0.87-2.25-1.31-3.37
		c-0.36-0.92-0.92-2.36-1.56-3.99c1.39-1,2.55-2.3,3.39-3.8l-2.11-1.18c-0.56,1.01-1.32,1.89-2.2,2.62
		c-0.83-2.13-1.67-4.3-2.28-5.86c0.15-0.41,0.24-0.85,0.24-1.31c0-1.56-0.92-2.89-2.25-3.51v-3.56c0-0.9-0.73-1.63-1.63-1.63
		c-0.9,0-1.63,0.73-1.63,1.63v3.56c-1.33,0.62-2.25,1.95-2.25,3.51c0,0.47,0.1,0.91,0.25,1.33c-0.63,1.61-1.44,3.69-2.28,5.84
		c-0.89-0.73-1.64-1.62-2.21-2.63L0,23.95c0.84,1.5,2.01,2.8,3.4,3.8c-1.11,2.83-2.17,5.56-2.85,7.31
		c-0.13,0.34-0.28,0.68-0.32,1.04c-0.15,1.18,0.42,1.97,1.49,2.48c-0.36,0.93-0.7,1.84-1.06,2.74c-0.14,0.35-0.23,0.7,0.2,0.88
		c0.44,0.18,0.62-0.15,0.74-0.5c0.03-0.09,0.07-0.18,0.11-0.27c0.61-1.56,1.23-3.12,1.84-4.68l0,0L6.44,29.32z M10.23,27.54
		c-1.02,0-1.99-0.18-2.91-0.49c0.62-1.59,1.4-3.59,1.98-5.08c0.3,0.07,0.61,0.12,0.93,0.12c0.33,0,0.64-0.05,0.94-0.13
		c0.57,1.46,1.32,3.39,1.97,5.08C12.22,27.36,11.25,27.54,10.23,27.54z M12.56,18.23c0,1.29-1.04,2.33-2.33,2.33
		S7.9,19.52,7.9,18.23c0-1.29,1.04-2.33,2.33-2.33S12.56,16.94,12.56,18.23z"/>
</g>
</svg>
