<?xml version="1.0" encoding="utf-8"?>
<!-- Generator: Adobe Illustrator 26.2.1, SVG Export Plug-In . SVG Version: 6.00 Build 0)  -->
<svg version="1.1" id="Capa_1" xmlns="http://www.w3.org/2000/svg" xmlns:xlink="http://www.w3.org/1999/xlink" x="0px" y="0px"
	 viewBox="0 0 50 50" style="enable-background:new 0 0 50 50;" xml:space="preserve">
<style type="text/css">
	.st0{fill:none;stroke:#0AAFF1;stroke-width:15;stroke-miterlimit:10;}
	.st1{fill:#0AAFF1;}
	.st2{fill:#FFFFFF;}
	.st3{fill:#FFFFFF;stroke:#E0E5EE;stroke-miterlimit:10;}
	.st4{fill:#606060;}
	.st5{fill:none;stroke:#0084F6;stroke-width:11;stroke-miterlimit:10;}
	.st6{fill:#00B346;}
	.st7{fill:#00A3C8;}
	.st8{fill:none;stroke:#00A3C8;stroke-miterlimit:10;}
	.st9{fill:none;stroke:#FFFFFF;stroke-width:4;stroke-miterlimit:10;}
	.st10{fill:#606060;stroke:#606060;stroke-width:5;stroke-miterlimit:10;}
	.st11{fill:none;stroke:#FFFFFF;stroke-width:10;stroke-miterlimit:10;}
	.st12{fill:#606060;stroke:#FFFFFF;stroke-width:10;stroke-miterlimit:10;}
	.st13{fill:#E70027;}
	.st14{fill:#FFFFFC;}
	.st15{fill:#FFFFFF;stroke:#606060;stroke-width:10;stroke-miterlimit:10;}
	.st16{fill:none;stroke:#000000;stroke-width:10;stroke-miterlimit:10;}
	.st17{fill:#F2F5FA;}
	.st18{fill:#FF8A5C;}
	.st19{fill:#F8F8F8;stroke:#E0E5EE;stroke-miterlimit:10;}
	.st20{fill:none;stroke:#C6C6C6;stroke-miterlimit:10;}
	.st21{fill:#FF5470;}
	.st22{fill:none;stroke:#FFFFFF;stroke-width:7;stroke-miterlimit:10;}
	.st23{fill:#FF7523;}
	.st24{fill:none;stroke:#FFFFFF;stroke-miterlimit:10;}
	.st25{fill:none;stroke:#0AAFF1;stroke-linecap:round;stroke-linejoin:round;stroke-miterlimit:10;}
	.st26{fill:#0AAFF1;stroke:#FFFFFF;stroke-linecap:round;stroke-linejoin:round;stroke-miterlimit:10;}
	.st27{opacity:0.25;fill:#1E93D1;}
	.st28{fill:#1E93D1;}
	.st29{fill:#1C5392;}
	.st30{fill:none;stroke:#FFFFFF;stroke-linecap:round;stroke-linejoin:round;stroke-miterlimit:10;}
	.st31{fill:none;stroke:#0AAFF1;stroke-width:2;stroke-linecap:round;stroke-linejoin:round;stroke-miterlimit:10;}
	.st32{fill:none;stroke:#0AAFF1;stroke-width:4;stroke-linecap:round;stroke-linejoin:round;stroke-miterlimit:10;}
	.st33{fill:none;stroke:#FFFFFF;stroke-width:5;stroke-miterlimit:10;}
	.st34{fill:none;stroke:#FFFFFF;stroke-width:5;stroke-linecap:round;stroke-linejoin:round;stroke-miterlimit:10;}
	.st35{fill:none;stroke:#0AAFF1;stroke-width:24;stroke-miterlimit:10;}
	.st36{fill:none;stroke:#F2F5FA;stroke-width:10;stroke-miterlimit:10;}
	.st37{fill:#B8D637;}
	.st38{fill:#1D1D1B;}
	.st39{fill:#88898B;}
	.st40{fill:#9F9FA1;}
	.st41{fill:#D2D2D3;}
	.st42{fill:#F7F7F7;}
	.st43{fill:none;stroke:#FFFFFF;stroke-width:4;stroke-linecap:round;stroke-linejoin:round;stroke-miterlimit:10;}
	.st44{fill:#0AAFF1;stroke:#FFFFFF;stroke-width:1.5;stroke-linecap:round;stroke-linejoin:round;stroke-miterlimit:10;}
	.st45{fill:#FFFFFF;stroke:#0AAFF1;stroke-width:1.5;stroke-linecap:round;stroke-linejoin:round;stroke-miterlimit:10;}
	.st46{fill:#FFFFFF;stroke:#0AAFF1;stroke-width:3;stroke-linecap:round;stroke-linejoin:round;stroke-miterlimit:10;}
	.st47{fill:none;stroke:#0AAFF1;stroke-width:3;stroke-linecap:round;stroke-linejoin:round;stroke-miterlimit:10;}
	.st48{fill:none;}
	.st49{fill:#FFFFFF;stroke:#0AAFF1;stroke-width:1.5;stroke-miterlimit:10;}
	.st50{fill:#0AAFF1;stroke:#FFFFFF;stroke-width:1.5;stroke-miterlimit:10;}
	.st51{fill:none;stroke:#0AAFF1;stroke-width:2;stroke-miterlimit:10;}
	.st52{fill:#FFFFFF;stroke:#0AAFF1;stroke-width:2;stroke-miterlimit:10;}
	.st53{fill:#0AAFF1;stroke:#FFFFFF;stroke-miterlimit:10;}
	.st54{fill:none;stroke:#0AAFF1;stroke-miterlimit:10;}
	.st55{fill:#FFFFFF;stroke:#0AAFF1;stroke-miterlimit:10;}
	.st56{fill:none;stroke:#FFFFFF;stroke-width:2;stroke-miterlimit:10;}
	.st57{fill:#0AAFF1;stroke:#0AAFF1;stroke-width:3;stroke-miterlimit:10;}
	.st58{fill:none;stroke:#0AAFF1;stroke-width:4;stroke-miterlimit:10;}
	.st59{fill:none;stroke:#0AAFF1;stroke-width:2.25;stroke-miterlimit:10;}
	.st60{fill:#1FB900;}
	.st61{fill:none;stroke:#0AAFF1;stroke-width:13;stroke-linecap:round;stroke-linejoin:round;stroke-miterlimit:10;}
	.st62{fill:none;stroke:#FFFFFF;stroke-width:1.5;stroke-miterlimit:10;}
	.st63{fill:none;stroke:#FFFFFF;stroke-width:1.5;stroke-linecap:round;stroke-linejoin:round;stroke-miterlimit:10;}
	.st64{fill:#F7FAF9;}
	.st65{fill:none;stroke:#FFFFFF;stroke-width:0.5;stroke-miterlimit:10;}
	.st66{fill:#FFFFFF;stroke:#0AAFF1;stroke-width:3;stroke-miterlimit:10;}
	.st67{fill:#606060;stroke:#0AAFF1;stroke-width:15;stroke-miterlimit:10;}
	.st68{fill:none;stroke:#0AAFF1;stroke-width:8;stroke-miterlimit:10;}
	.st69{fill:#FFFFFF;stroke:#0AAFF1;stroke-width:0.75;stroke-linecap:round;stroke-linejoin:round;stroke-miterlimit:10;}
	.st70{fill:none;stroke:#0AAFF1;stroke-width:10;stroke-linecap:round;stroke-linejoin:round;stroke-miterlimit:10;}
	.st71{fill:none;stroke:#E70027;stroke-width:10;stroke-linecap:round;stroke-linejoin:round;stroke-miterlimit:10;}
	.st72{opacity:0.5;fill:none;stroke:#E70027;stroke-width:10;stroke-miterlimit:10;}
	.st73{opacity:0.5;fill:#E70027;}
	.st74{fill:none;stroke:#FFFFFC;stroke-width:10;stroke-linecap:round;stroke-linejoin:round;stroke-miterlimit:10;}
	.st75{fill:none;stroke:#606060;stroke-width:15;stroke-linecap:round;stroke-linejoin:round;stroke-miterlimit:10;}
	.st76{fill:#606060;stroke:#FFFFFF;stroke-width:7;stroke-miterlimit:10;}
	.st77{fill:#0AAFF1;stroke:#0AAFF1;stroke-miterlimit:10;}
	.st78{fill:none;stroke:#606060;stroke-width:10;stroke-linecap:round;stroke-linejoin:round;stroke-miterlimit:10;}
	.st79{fill:none;stroke:#FFFFFF;stroke-width:7;stroke-miterlimit:10;stroke-dasharray:5.8286,5.8286;}
	.st80{fill:none;stroke:#000000;stroke-width:19;stroke-miterlimit:10;}
	.st81{fill:#0AAFF1;stroke:#FFFFFF;stroke-width:2;stroke-miterlimit:10;}
	.st82{fill:#45B8FF;}
	.st83{opacity:0.5;fill:none;stroke:#45B8FF;stroke-width:1.75;stroke-miterlimit:10;}
	.st84{fill:none;stroke:#000000;stroke-width:1.75;stroke-miterlimit:10;}
	.st85{fill:none;stroke:#000000;stroke-width:1.5;stroke-miterlimit:10;}
	.st86{fill:none;stroke:#0AAFF1;stroke-width:1.75;stroke-miterlimit:10;}
	.st87{fill:none;stroke:#0AAFF1;stroke-width:1.75;stroke-linecap:round;stroke-linejoin:round;stroke-miterlimit:10;}
	.st88{fill:#FFFFFC;stroke:#FFFFFC;stroke-width:3;stroke-miterlimit:10;}
	.st89{fill:none;stroke:#000000;stroke-width:2;stroke-miterlimit:10;}
	.st90{fill:none;stroke:#FFFFFF;stroke-width:2;stroke-linecap:round;stroke-linejoin:round;stroke-miterlimit:10;}
	.st91{fill:#00A3C8;stroke:#606060;stroke-width:5;stroke-miterlimit:10;}
	.st92{fill:#0084F6;}
	.st93{fill:#CDCDC9;}
	.st94{fill-rule:evenodd;clip-rule:evenodd;fill:#FFFFFF;}
	.st95{fill:none;stroke:#0AAFF1;stroke-width:5;stroke-miterlimit:10;}
	.st96{fill:none;stroke:#0AAFF1;stroke-width:5;stroke-linecap:round;stroke-linejoin:round;stroke-miterlimit:10;}
	.st97{fill:#FFFFFF;stroke:#0AAFF1;stroke-width:5;stroke-linecap:round;stroke-linejoin:round;stroke-miterlimit:10;}
	.st98{fill:none;stroke:#0AAFF1;stroke-width:3;stroke-miterlimit:10;}
	.st99{fill:#0AAFF1;stroke:#0AAFF1;stroke-width:6;stroke-linecap:round;stroke-linejoin:round;stroke-miterlimit:10;}
	.st100{fill:#00D06F;}
	.st101{fill:#0AAFF1;stroke:#0AAFF1;stroke-width:6;stroke-miterlimit:10;}
	.st102{fill:none;stroke:#0AAFF1;stroke-width:2.5;stroke-linecap:round;stroke-linejoin:round;stroke-miterlimit:10;}
	.st103{fill:#FFFF00;stroke:#000000;stroke-width:3;stroke-miterlimit:10;}
	.st104{fill:#53FC00;}
	.st105{fill:#80A51B;}
	.st106{fill:none;stroke:#80A51B;stroke-width:0.999;}
	.st107{fill:none;stroke:#000000;stroke-width:0.75;stroke-miterlimit:10;}
	.st108{opacity:0.4;}
	.st109{fill:#0078D4;}
	.st110{fill:#45D7FA;}
	.st111{fill:#189AE1;}
	.st112{fill:none;stroke:#606060;stroke-width:13;stroke-linecap:round;stroke-linejoin:round;stroke-miterlimit:10;}
	.st113{fill:none;stroke:#FFFFFF;stroke-width:7;stroke-linecap:round;stroke-linejoin:round;stroke-miterlimit:10;}
	.st114{fill:#FFFFFF;stroke:#FFFFFF;stroke-miterlimit:10;}
	.st115{fill:#DADADA;}
	.st116{fill:none;stroke:#20FF77;stroke-miterlimit:10;}
</style>
<g>
	<path class="st2" d="M9.06,44.15c0.15-0.68,0.39-1.33,0.69-1.95c-0.27-0.03-0.55-0.06-0.82-0.08c-0.27-0.02-0.56-0.03-0.87-0.03
		c-2.36,0-4.29,0.44-5.8,1.33C0.75,44.32,0,45.48,0,46.92V50h8.83v-3.7C8.83,45.55,8.91,44.83,9.06,44.15z"/>
	<path class="st2" d="M34.19,40.66C31.86,39.22,28.8,38.5,25,38.5c-3.76,0-6.82,0.72-9.16,2.16s-3.52,3.32-3.52,5.65V50h25.36v-3.7
		C37.68,43.98,36.52,42.09,34.19,40.66z"/>
	<path class="st2" d="M47.79,43.4c-1.47-0.87-3.42-1.31-5.85-1.31c-0.27,0-0.55,0.01-0.82,0.03c-0.27,0.02-0.55,0.04-0.82,0.08
		c0.31,0.62,0.53,1.27,0.67,1.95c0.14,0.68,0.21,1.4,0.21,2.16V50H50v-3.08C50,45.45,49.26,44.28,47.79,43.4z"/>
	<path class="st2" d="M8.06,33.01c-1.06,0-1.96,0.38-2.7,1.13c-0.74,0.75-1.1,1.66-1.1,2.72c0,1.03,0.37,1.92,1.1,2.67
		s1.63,1.13,2.7,1.13s1.97-0.38,2.72-1.13s1.13-1.64,1.13-2.67c0-1.06-0.38-1.97-1.13-2.72C10.03,33.38,9.12,33.01,8.06,33.01z"/>
	<path class="st2" d="M41.94,33.01c-1.06,0-1.96,0.38-2.7,1.13c-0.74,0.75-1.1,1.66-1.1,2.72c0,1.03,0.37,1.92,1.1,2.67
		s1.63,1.13,2.7,1.13c1.06,0,1.97-0.38,2.72-1.13c0.75-0.75,1.13-1.64,1.13-2.67c0-1.06-0.38-1.97-1.13-2.72
		C43.91,33.38,43,33.01,41.94,33.01z"/>
	<path class="st2" d="M25,23.97c-1.81,0-3.35,0.62-4.62,1.87s-1.9,2.8-1.9,4.65c0,1.81,0.63,3.35,1.9,4.62s2.81,1.9,4.62,1.9
		c1.85,0,3.4-0.63,4.65-1.9c1.25-1.27,1.87-2.81,1.87-4.62c0-1.85-0.62-3.4-1.87-4.65C28.4,24.6,26.85,23.97,25,23.97z"/>
	<path class="st2" d="M12.25,3.55v13.47c0,1.96,1.59,3.55,3.55,3.55h19.47v4.86l5.73-5.73c0.13-0.12,0.26-0.24,0.37-0.37l0.12-0.12
		h-0.02c0.47-0.6,0.77-1.36,0.77-2.18V3.55C42.25,1.59,40.66,0,38.7,0H15.8C13.84,0,12.25,1.59,12.25,3.55z M19.34,4.79h15.83
		c0.55,0,1,0.45,1,1s-0.45,1-1,1H19.34c-0.55,0-1-0.45-1-1S18.79,4.79,19.34,4.79z M19.34,9.29h8.58c0.55,0,1,0.45,1,1s-0.45,1-1,1
		h-8.58c-0.55,0-1-0.45-1-1S18.79,9.29,19.34,9.29z M19.34,13.79H32.2c0.55,0,1,0.45,1,1s-0.45,1-1,1H19.34c-0.55,0-1-0.45-1-1
		S18.79,13.79,19.34,13.79z"/>
</g>
</svg>
