<?xml version="1.0" encoding="utf-8"?>
<!-- Generator: Adobe Illustrator 24.0.2, SVG Export Plug-In . SVG Version: 6.00 Build 0)  -->
<svg version="1.1" id="Capa_1" xmlns="http://www.w3.org/2000/svg" xmlns:xlink="http://www.w3.org/1999/xlink" x="0px" y="0px"
	 viewBox="0 0 575 100" style="enable-background:new 0 0 575 100;" xml:space="preserve">
<style type="text/css">
	.st0{fill:#D0D0D0;}
	.st1{fill:#AFCA0A;}
</style>
<g>
	<g>
		<g>
			<path class="st0" d="M71.08,49.88c0-3.52,0.52-6.72,1.57-9.59c1.05-2.87,2.54-5.33,4.48-7.37s4.3-3.61,7.07-4.71
				c2.77-1.1,5.89-1.65,9.34-1.65c2.27,0,4.2,0.18,5.77,0.53c1.57,0.36,2.93,0.77,4.06,1.24l-1.7,6.75
				c-1.05-0.38-2.22-0.68-3.53-0.9c-1.3-0.22-2.69-0.33-4.16-0.33c-1.94,0-3.69,0.31-5.25,0.94c-1.56,0.62-2.89,1.59-3.98,2.89
				c-1.09,1.3-1.93,2.96-2.52,4.98c-0.59,2.02-0.89,4.43-0.89,7.24s0.3,5.23,0.9,7.27c0.6,2.04,1.45,3.72,2.56,5.03
				c1.1,1.32,2.44,2.29,4.01,2.92c1.57,0.64,3.31,0.95,5.23,0.95c1.81,0,3.45-0.18,4.95-0.55c1.49-0.37,2.81-0.77,3.94-1.22
				l1.57,6.79c-1.29,0.65-2.87,1.19-4.75,1.62s-4.16,0.65-6.85,0.65c-3.34,0-6.36-0.56-9.04-1.69c-2.69-1.13-4.98-2.71-6.87-4.76
				c-1.89-2.05-3.35-4.52-4.38-7.4C71.59,56.6,71.08,53.4,71.08,49.88z"/>
		</g>
		<path class="st0" d="M107.1,53.65v-7.56h18.83v7.56H107.1z"/>
		<path class="st0" d="M134.29,27.22h15.29c3.43,0,6.55,0.54,9.33,1.62c2.79,1.08,5.16,2.61,7.13,4.58
			c1.96,1.97,3.47,4.35,4.53,7.14c1.06,2.79,1.59,5.9,1.59,9.33c0,3.44-0.53,6.55-1.59,9.35c-1.06,2.8-2.57,5.2-4.53,7.19
			c-1.96,2-4.34,3.54-7.13,4.63c-2.79,1.09-5.9,1.64-9.33,1.64h-15.29V27.22z M144.3,34.51v30.91h4.55c1.96,0,3.75-0.3,5.37-0.9
			c1.62-0.6,2.99-1.54,4.13-2.81c1.14-1.27,2.02-2.88,2.64-4.83c0.62-1.95,0.94-4.28,0.94-6.97c0-2.7-0.31-5.02-0.94-6.96
			c-0.63-1.94-1.51-3.53-2.64-4.78c-1.14-1.25-2.52-2.17-4.13-2.76c-1.62-0.59-3.41-0.89-5.37-0.89H144.3z"/>
		<path class="st0" d="M188.32,58.16c0.31,2.57,1.21,4.53,2.71,5.89c1.49,1.36,3.56,2.04,6.19,2.04c1.9,0,3.6-0.14,5.12-0.42
			c1.52-0.28,2.81-0.57,3.88-0.89l2.01,5.95c-1.4,0.85-3.09,1.5-5.05,1.96c-1.96,0.46-4.09,0.69-6.39,0.69
			c-2.92,0-5.53-0.38-7.83-1.15c-2.3-0.77-4.24-1.88-5.84-3.35c-1.6-1.46-2.82-3.25-3.66-5.37c-0.85-2.12-1.27-4.54-1.27-7.26
			c0-2.79,0.41-5.28,1.22-7.48c0.81-2.2,1.97-4.05,3.46-5.55c1.49-1.51,3.3-2.65,5.4-3.45c2.11-0.79,4.45-1.19,7.04-1.19
			c2.01,0,3.89,0.32,5.64,0.97c1.75,0.65,3.28,1.56,4.58,2.74c1.3,1.18,2.34,2.6,3.09,4.25c0.76,1.65,1.14,3.49,1.14,5.52v6.09
			H188.32z M194.88,45.49c-0.85,0-1.62,0.11-2.31,0.32c-0.69,0.21-1.31,0.57-1.86,1.09c-0.55,0.51-1,1.19-1.37,2.04
			c-0.37,0.85-0.65,1.9-0.85,3.14h12.08c0-1.2-0.16-2.23-0.47-3.08c-0.31-0.85-0.73-1.53-1.25-2.04c-0.52-0.51-1.13-0.89-1.81-1.12
			C196.35,45.6,195.63,45.49,194.88,45.49z"/>
		<path class="st0" d="M212.77,39.26h10.17l4.58,15.05l2.31,9.84l2.44-9.9l4.45-14.99h10.17l-11.98,33.45h-10.17L212.77,39.26z"/>
		<path class="st0" d="M249.87,49.97c0-3.59,0.5-6.83,1.49-9.72c0.99-2.89,2.4-5.35,4.23-7.38c1.83-2.03,4.05-3.59,6.66-4.68
			c2.61-1.09,5.52-1.64,8.73-1.64c3.23,0,6.15,0.55,8.75,1.64c2.6,1.09,4.82,2.65,6.66,4.68c1.84,2.03,3.26,4.49,4.25,7.38
			c0.99,2.89,1.49,6.13,1.49,9.72c0,3.61-0.5,6.86-1.49,9.75c-0.99,2.89-2.41,5.35-4.25,7.38c-1.84,2.03-4.06,3.59-6.66,4.67
			c-2.6,1.08-5.51,1.62-8.75,1.62c-3.21,0-6.12-0.54-8.73-1.62c-2.61-1.08-4.83-2.64-6.66-4.67c-1.83-2.03-3.24-4.49-4.23-7.38
			C250.37,56.83,249.87,53.58,249.87,49.97z M259.91,49.97c0,2.59,0.26,4.88,0.77,6.87c0.51,2,1.24,3.68,2.19,5.05
			c0.95,1.37,2.11,2.41,3.48,3.13c1.37,0.71,2.92,1.07,4.63,1.07c1.74,0,3.3-0.36,4.68-1.07c1.38-0.71,2.55-1.76,3.5-3.13
			c0.95-1.37,1.67-3.05,2.17-5.05c0.5-2,0.75-4.29,0.75-6.87c0-2.59-0.25-4.88-0.75-6.87c-0.5-2-1.23-3.68-2.17-5.05
			c-0.95-1.37-2.11-2.41-3.5-3.13c-1.38-0.71-2.94-1.07-4.68-1.07c-1.72,0-3.26,0.36-4.63,1.07c-1.37,0.71-2.53,1.76-3.48,3.13
			c-0.95,1.37-1.68,3.06-2.19,5.05C260.16,45.09,259.91,47.38,259.91,49.97z"/>
		<path class="st0" d="M299.55,39.26h8.8l0.67,2.94c0.63-0.56,1.27-1.06,1.94-1.52c0.67-0.46,1.4-0.84,2.21-1.14s1.69-0.54,2.66-0.7
			c0.97-0.17,2.08-0.25,3.33-0.25c2.12,0,4.04,0.41,5.75,1.24c1.72,0.83,3.18,2,4.4,3.51c1.21,1.52,2.15,3.35,2.81,5.49
			c0.66,2.14,0.99,4.53,0.99,7.16c0,2.63-0.33,5.02-0.99,7.16c-0.66,2.14-1.6,3.97-2.81,5.49c-1.22,1.52-2.68,2.69-4.4,3.51
			s-3.64,1.24-5.75,1.24c-1.11,0-2.12-0.07-3.03-0.2c-0.9-0.13-1.74-0.33-2.51-0.6c-0.77-0.27-1.48-0.6-2.13-0.99
			c-0.65-0.39-1.27-0.83-1.87-1.32V86.1h-10.07V39.26z M322.9,55.99c0-3.26-0.56-5.75-1.67-7.49c-1.11-1.74-2.95-2.61-5.52-2.61
			c-1.18,0-2.28,0.2-3.29,0.59c-1.02,0.39-1.95,0.89-2.79,1.49v16.06c0.85,0.63,1.78,1.13,2.79,1.51c1.01,0.38,2.11,0.57,3.29,0.57
			c2.57,0,4.41-0.86,5.52-2.59C322.34,61.77,322.9,59.27,322.9,55.99z"/>
		<path class="st0" d="M365.99,62.95c0,1.58-0.33,3.02-0.99,4.3c-0.66,1.28-1.61,2.38-2.86,3.28c-1.25,0.9-2.77,1.61-4.55,2.11
			c-1.78,0.5-3.79,0.75-6.02,0.75c-1.16,0-2.33-0.06-3.51-0.18c-1.18-0.12-2.32-0.3-3.43-0.54c-1.1-0.23-2.16-0.52-3.16-0.85
			c-1-0.33-1.91-0.7-2.71-1.1l1.37-6.62c0.91,0.29,1.8,0.57,2.64,0.84c0.85,0.27,1.7,0.5,2.54,0.7s1.71,0.36,2.58,0.47
			c0.87,0.11,1.78,0.17,2.74,0.17c1.7,0,2.95-0.31,3.78-0.94c0.83-0.62,1.24-1.48,1.24-2.58c0-0.51-0.16-0.96-0.47-1.35
			c-0.31-0.39-0.75-0.75-1.3-1.07c-0.56-0.32-1.21-0.61-1.97-0.85c-0.76-0.24-1.58-0.49-2.48-0.74c-1.47-0.38-2.83-0.85-4.08-1.42
			s-2.33-1.25-3.24-2.06c-0.91-0.8-1.63-1.74-2.14-2.81c-0.51-1.07-0.77-2.3-0.77-3.68c0-1.58,0.33-3,1-4.27
			c0.67-1.26,1.63-2.32,2.88-3.19c1.25-0.87,2.77-1.54,4.55-2.01c1.78-0.47,3.8-0.7,6.05-0.7c2.39,0,4.55,0.23,6.51,0.7
			c1.95,0.47,3.56,0.97,4.83,1.51l-1.54,6.76c-0.85-0.27-1.64-0.51-2.38-0.74c-0.74-0.22-1.45-0.42-2.16-0.59
			c-0.7-0.17-1.4-0.29-2.11-0.38c-0.7-0.09-1.46-0.13-2.26-0.13c-1.74,0-3.02,0.28-3.83,0.84c-0.82,0.56-1.22,1.34-1.22,2.34
			c0,0.49,0.1,0.92,0.29,1.29c0.19,0.37,0.49,0.7,0.92,1s0.97,0.58,1.64,0.84c0.67,0.26,1.48,0.51,2.44,0.75
			c3.77,1,6.57,2.34,8.41,4.01C365.07,58.47,365.99,60.52,365.99,62.95z"/>
		<polygon class="st0" points="51.95,27.22 39.91,48.66 27.86,27.22 16.56,27.22 16.56,72.72 21.27,72.72 26.52,72.72 26.52,55.35 
			26.52,41.27 36.89,60.07 42.88,60.07 53.15,41.51 53.15,55.69 53.15,72.72 58.43,72.72 63.15,72.72 63.15,27.22 		"/>
	</g>
	<g>
		<path class="st1" d="M407.4,35.06v-8.51h-31.38v8.51h11.33v25.11c0,6.55,5.33,11.88,11.88,11.88h3.04v-8.51h-3.04
			c-1.86,0-3.37-1.51-3.37-3.37V35.06H407.4z"/>
		<g>
			<path class="st1" d="M550.75,26.59c1.1,0,2.12,0.18,3.06,0.54c0.94,0.36,1.75,0.87,2.44,1.54c0.69,0.67,1.23,1.48,1.62,2.43
				c0.39,0.95,0.58,2.02,0.58,3.2c0,1.18-0.19,2.25-0.58,3.2c-0.39,0.95-0.93,1.76-1.62,2.43c-0.69,0.67-1.5,1.18-2.44,1.54
				c-0.94,0.36-1.96,0.54-3.06,0.54s-2.12-0.18-3.07-0.54c-0.94-0.36-1.76-0.87-2.45-1.54c-0.69-0.67-1.23-1.48-1.62-2.43
				c-0.39-0.95-0.59-2.02-0.59-3.2c0-1.18,0.2-2.25,0.59-3.2c0.39-0.95,0.93-1.76,1.62-2.43s1.5-1.18,2.45-1.54
				C548.62,26.77,549.64,26.59,550.75,26.59z M550.75,40.95c0.88,0,1.71-0.13,2.49-0.4c0.78-0.27,1.46-0.68,2.03-1.23
				c0.58-0.55,1.03-1.24,1.37-2.08c0.34-0.83,0.51-1.82,0.51-2.95c0-1.13-0.17-2.11-0.51-2.95c-0.34-0.83-0.79-1.53-1.37-2.08
				c-0.58-0.55-1.25-0.96-2.03-1.23c-0.78-0.27-1.61-0.4-2.49-0.4c-0.89,0-1.72,0.13-2.5,0.4c-0.78,0.27-1.46,0.68-2.03,1.23
				c-0.58,0.55-1.03,1.24-1.37,2.08c-0.33,0.83-0.5,1.82-0.5,2.95c0,1.13,0.17,2.11,0.5,2.95c0.33,0.83,0.79,1.53,1.37,2.08
				c0.58,0.55,1.25,0.96,2.03,1.23C549.02,40.82,549.86,40.95,550.75,40.95z M547.66,30.18h3.28c0.44,0,0.86,0.05,1.24,0.15
				c0.39,0.1,0.73,0.25,1.01,0.46c0.29,0.21,0.51,0.47,0.68,0.79c0.17,0.32,0.25,0.7,0.25,1.14c0,0.25-0.05,0.48-0.14,0.69
				c-0.1,0.21-0.23,0.41-0.39,0.58s-0.36,0.32-0.58,0.46c-0.22,0.13-0.46,0.24-0.71,0.33l1.97,3.36h-1.37l-1.82-3.13h-2.08v3.13
				h-1.34V30.18z M549.01,31.26v2.67h2.42c0.15-0.02,0.3-0.06,0.46-0.11c0.16-0.05,0.31-0.12,0.45-0.21
				c0.14-0.09,0.25-0.21,0.34-0.35c0.09-0.14,0.13-0.32,0.13-0.53c0-0.53-0.18-0.9-0.53-1.12c-0.35-0.22-0.86-0.33-1.53-0.33H549.01
				z"/>
		</g>
		<path class="st1" d="M479.87,72.05h-8.51v-19.7c0-3.55-2.89-6.44-6.44-6.44c-3.55,0-6.44,2.89-6.44,6.44v19.7h-8.51v-19.7
			c0-8.25,6.71-14.95,14.95-14.95c8.25,0,14.96,6.71,14.96,14.95V72.05z"/>
		<path class="st1" d="M443.09,56.77h-27.17c0.39,2.4,1.44,4.3,3.14,5.72c1.7,1.41,3.88,2.12,6.52,2.12c3.16,0,5.88-1.1,8.15-3.32
			l7.13,3.35c-1.78,2.52-3.9,4.38-6.38,5.59c-2.48,1.21-5.42,1.81-8.83,1.81c-5.29,0-9.59-1.67-12.92-5
			c-3.33-3.33-4.99-7.51-4.99-12.53c0-5.14,1.66-9.41,4.97-12.81c3.31-3.4,7.47-5.1,12.47-5.1c5.31,0,9.63,1.7,12.95,5.1
			c3.32,3.4,4.99,7.89,4.99,13.46L443.09,56.77z M434.63,50.11c-0.56-1.88-1.66-3.41-3.31-4.59c-1.65-1.18-3.55-1.77-5.73-1.77
			c-2.36,0-4.43,0.66-6.21,1.98c-1.12,0.83-2.15,2.28-3.1,4.37H434.63z"/>
		<path class="st1" d="M498.01,38.79v-12.2h-8.51v12.2h-6.58l0,0v6.66v0h6.58v14.71c0,6.55,5.33,11.88,11.88,11.88h3.21v-8.51h-3.21
			c-1.86,0-3.37-1.51-3.37-3.37V45.46h6.58v0v-6.66l0,0H498.01z"/>
		<path class="st1" d="M525.3,36.57c-9.78,0-17.74,7.96-17.74,17.74c0,9.78,7.96,17.74,17.74,17.74c9.78,0,17.74-7.96,17.74-17.74
			C543.04,44.52,535.08,36.57,525.3,36.57z M524.88,60.01c-0.53-0.46-1.19-0.73-1.89-0.79l-7.92-0.62l15.76-15.54l0.08,22.13
			L524.88,60.01z"/>
	</g>
</g>
</svg>
